Coordinates
version=1
nRows=29
nColumns=24
inDegrees=yes

Units are S.I. units (second, meters, Newtons, ...)
Angles are in degrees.

endheader
time	pelvis_tilt	pelvis_list	pelvis_rotation	pelvis_tx	pelvis_ty	pelvis_tz	hip_flexion_r	hip_adduction_r	hip_rotation_r	knee_angle_r	ankle_angle_r	subtalar_angle_r	mtp_angle_r	hip_flexion_l	hip_adduction_l	hip_rotation_l	knee_angle_l	ankle_angle_l	subtalar_angle_l	mtp_angle_l	lumbar_extension	lumbar_bending	lumbar_rotation
      1.32100000	      6.20477424	      4.11341306	     -0.91127779	      0.35896277	      1.01530231	      0.28725969	     11.20566003	     -3.51439290	      0.76336308	    -67.06888283	     -7.44198146	    -14.96399413	      0.82656961	      0.52225199	      8.81932771	      0.11692339	     -8.37338813	      0.57182996	     -7.65416134	      2.87848811	     -7.57833227	     -2.10327229	      2.30610817
      1.32516667	      6.23815513	      3.97190774	     -0.79397244	      0.36384317	      1.01596488	      0.28699397	     11.71325198	     -3.33204703	      0.76689344	    -66.81029714	     -6.60626672	    -15.22983436	      0.72392606	      0.03657570	      8.68289097	      0.31059925	     -8.13643206	      0.64944889	     -7.65685096	      2.85992955	     -7.65948746	     -1.90375546	      2.24325787
      1.32933333	      6.31589088	      3.86949676	     -0.69386318	      0.36873295	      1.01662033	      0.28675917	     12.16502040	     -3.19278875	      0.78776502	    -66.51455056	     -5.81064102	    -15.65456020	      0.48086898	     -0.53308326	      8.59395712	      0.56279714	     -7.82169030	      0.69675436	     -7.79632447	      2.80993745	     -7.77762528	     -1.80262806	      2.08499548
      1.33350000	      6.34682833	      3.73889076	     -0.59973412	      0.37361056	      1.01721447	      0.28650840	     12.65474448	     -3.02369832	      0.81573273	    -66.16500344	     -4.94285408	    -15.73808177	     -3.35051540	     -1.05258854	      8.47960717	      0.85077739	     -7.49837274	      0.62829163	     -8.09597636	      1.96785898	     -7.84375643	     -1.62662044	      1.97827251
      1.33766667	      6.37126484	      3.58735307	     -0.43885147	      0.37847229	      1.01775181	      0.28621794	     13.11854313	     -2.84904875	      0.75755565	    -65.73510225	     -4.22672342	    -16.05152583	     -3.37010089	     -1.50052556	      8.32280159	      1.06827015	     -7.31751686	      0.79918739	     -8.02365870	      1.97013058	     -7.91336815	     -1.43470814	      1.92407574
      1.34183333	      6.45405773	      3.46029245	     -0.33071602	      0.38331956	      1.01832839	      0.28599880	     13.51711850	     -2.68845029	      0.76012705	    -65.26629927	     -3.53474873	    -16.47198695	     -3.43261010	     -2.04802613	      8.19735579	      1.29341548	     -7.04804994	      0.87402270	     -8.10606967	      1.95924762	     -8.05450632	     -1.28775505	      1.76161969
      1.34600000	      6.47058455	      3.30065248	     -0.19278254	      0.38817093	      1.01878725	      0.28573726	     13.96453472	     -2.50494772	      0.72573629	    -64.73305245	     -2.84833211	    -16.69370737	     -3.46418850	     -2.48799345	      8.03212669	      1.50100061	     -6.85097273	      0.95115487	     -8.16281791	      1.95140039	     -8.10894951	     -1.08007257	      1.69314301
      1.35016667	      6.53345859	      3.19553927	     -0.08165421	      0.39300965	      1.01924475	      0.28550457	     14.36023929	     -2.38236085	      0.71887312	    -64.17460778	     -2.20337376	    -17.03382542	     -3.55738479	     -3.02384871	      7.93378585	      1.80287392	     -6.55476333	      0.98072416	     -8.39465151	      1.92210932	     -8.22185642	     -0.95575228	      1.51453137
      1.35433333	      6.57014206	      3.05821985	      0.04667364	      0.39784848	      1.01964172	      0.28526097	     14.75920046	     -2.22813876	      0.69120500	    -63.54875769	     -1.57894824	    -17.27044418	     -3.65411495	     -3.50264164	      7.79420157	      2.06811564	     -6.31600303	      1.03562109	     -8.56678931	      1.88817012	     -8.30168375	     -0.78414675	      1.40123090
      1.35850000	      6.62433296	      2.92027123	      0.17362496	      0.40268249	      1.02003419	      0.28503105	     15.12035666	     -2.07544333	      0.66148578	    -62.86503106	     -0.99971326	    -17.49504059	     -3.76899527	     -3.99907018	      7.65051633	      2.33117482	     -6.07617642	      1.08469198	     -8.73974133	      1.84479958	     -8.40341155	     -0.61197145	      1.28140753
      1.36266667	      6.62699942	      2.77794870	      0.31044643	      0.40750171	      1.02031532	      0.28480829	     15.52346835	     -1.91885073	      0.62769506	    -62.13537005	     -0.43779784	    -17.65712331	     -3.82860044	     -4.39989373	      7.49558112	      2.53726085	     -5.91260920	      1.17724227	     -8.83151375	      1.82123819	     -8.43869886	     -0.43767767	      1.21915152
      1.36683333	      6.68227966	      2.67649901	      0.42056974	      0.41233333	      1.02059982	      0.28459979	     15.86312466	     -1.81220370	      0.60900291	    -61.38007100	      0.07251192	    -17.88987075	     -3.96710596	     -4.91141524	      7.39151373	      2.83777663	     -5.63974240	      1.22145126	     -9.08229941	      1.76291848	     -8.54765256	     -0.30644013	      1.05277681
      1.37100000	      6.69601669	      2.53556301	      0.55237669	      0.41715870	      1.02083547	      0.28439743	     16.21621447	     -1.66068712	      0.57590801	    -60.54372440	      0.55759509	    -18.00666817	     -4.03019243	     -5.31642377	      7.23354773	      3.03247405	     -5.48877730	      1.32507172	     -9.16691306	      1.73563463	     -8.59357243	     -0.12804176	      1.00295926
      1.37516667	      6.77548654	      2.42480660	      0.65889678	      0.42199101	      1.02109387	      0.28421636	     16.48699778	     -1.54249456	      0.56028829	    -59.67519917	      0.97900476	    -18.20658179	     -4.18680040	     -5.84913519	      7.11204936	      3.32370131	     -5.22256261	      1.37693613	     -9.40631827	      1.66571868	     -8.73314840	      0.00740602	      0.84426920
      1.37933333	      6.79862394	      2.32159189	      0.77268657	      0.42682616	      1.02123565	      0.28403275	     16.80598365	     -1.43873350	      0.53547655	    -58.77029216	      1.39241725	    -18.33158725	     -4.35861404	     -6.28997254	      6.99596182	      3.57625209	     -5.01843447	      1.46525746	     -9.60400563	      1.58680077	     -8.79588007	      0.13810090	      0.74271911
      1.38350000	      6.77955481	      2.20323793	      0.88979939	      0.43165658	      1.02128950	      0.28387101	     17.15208629	     -1.31687140	      0.50966763	    -57.81445580	      1.76922147	    -18.40013105	     -4.41999114	     -6.64630975	      6.85616340	      3.74598903	     -4.88945016	      1.60082193	     -9.66471264	      1.55933647	     -8.81152149	      0.28606822	      0.70853437
      1.38766667	      6.86275360	      2.10405750	      0.98941551	      0.43650270	      1.02144954	      0.28372441	     17.36139900	     -1.21388207	      0.49639220	    -56.80179301	      2.07879091	    -18.54450847	     -4.56678335	     -7.16533994	      6.73794588	      4.00567488	     -4.65862381	      1.69635456	     -9.86006506	      1.49070211	     -8.94564331	      0.40809479	      0.57024222
      1.39183333	      6.88848426	      2.01702759	      1.08956609	      0.44134138	      1.02149032	      0.28358431	     17.62239201	     -1.12649009	      0.48581193	    -55.75892386	      2.37073573	    -18.63255133	     -4.73877608	     -7.60160001	      6.63198175	      4.25026099	     -4.46779455	      1.79631485	    -10.04759794	      1.40832235	     -9.01205989	      0.51806954	      0.47651808
      1.39600000	      6.88119938	      1.92155476	      1.19169063	      0.44618806	      1.02145955	      0.28346228	     17.90049271	     -1.03246705	      0.46576935	    -54.67267193	      2.65168943	    -18.68041932	     -4.82114519	     -7.97003140	      6.51143027	      4.41612298	     -4.33979766	      1.93735842	    -10.12398132	      1.36971843	     -9.04132099	      0.63565174	      0.44257945
      1.40016667	      6.94897318	      1.84314339	      1.27267458	      0.45105688	      1.02149492	      0.28336159	     18.07106492	     -0.94928122	      0.46966976	    -53.53254859	      2.84291775	    -18.78446508	     -4.99369475	     -8.46584436	      6.41008926	      4.65673748	     -4.12401110	      2.03998851	    -10.29520848	      1.28615469	     -9.15172124	      0.73927054	      0.32822023
      1.40433333	      6.91679595	      1.76184508	      1.36669307	      0.45592588	      1.02135860	      0.28325428	     18.33987024	     -0.87352669	      0.45215217	    -52.36887212	      3.06755258	    -18.81450515	     -5.07577965	     -8.80347551	      6.30343029	      4.82307594	     -4.00784912	      2.19838853	    -10.37655767	      1.24746792	     -9.14927997	      0.83907208	      0.29896574
      1.40850000	      6.95334166	      1.68651628	      1.44858535	      0.46079333	      1.02128592	      0.28317197	     18.50857047	     -0.80071166	      0.43867320	    -51.15125089	      3.22494572	    -18.87371834	     -5.18409720	     -9.23817376	      6.20018344	      5.01208337	     -3.84567224	      2.34035724	    -10.49016147	      1.19512268	     -9.23236032	      0.92869420	      0.23003436
      1.41266667	      6.98737437	      1.64605667	      1.50723799	      0.46566309	      1.02116203	      0.28311681	     18.67007489	     -0.75808877	      0.45938294	    -49.91205678	      3.33352096	    -18.95162931	     -5.36110934	     -9.68882679	      6.13788074	      5.23471296	     -3.64863137	      2.45025136	    -10.64564473	      1.10534120	     -9.30954928	      0.98854470	      0.13885125
      1.41683333	      6.93136810	      1.58996223	      1.56932774	      0.47056145	      1.02088952	      0.28307007	     18.91345158	     -0.70415992	      0.46738049	    -48.64607217	      3.50325213	    -18.94990437	     -5.40876930	    -10.00766162	      6.05692966	      5.37548191	     -3.52151552	      2.63970516	    -10.67009966	      1.08398114	     -9.25702485	      1.05902706	      0.12954835
      1.42100000	      7.00379037	      1.53486298	      1.64015115	      0.47543240	      1.02075890	      0.28301578	     18.98150279	     -0.65661654	      0.44364022	    -47.30841199	      3.54377464	    -19.01915577	     -5.56876849	    -10.47983951	      5.97084663	      5.55294380	     -3.36404798	      2.76595323	    -10.80224656	      1.00127656	     -9.39718997	      1.12903288	      0.04172988
      1.42516667	      6.96643142	      1.47397705	      1.70996870	      0.48034697	      1.02046733	      0.28296995	     19.15519383	     -0.60828664	      0.41040944	    -45.95176378	      3.64508651	    -19.02560194	     -5.65751637	    -10.81383588	      5.88050226	      5.68539234	     -3.24970333	      2.94921895	    -10.86755720	      0.95593080	     -9.37903160	      1.20173102	      0.01874296
      1.42933333	      6.99420628	      1.44087973	      1.75768127	      0.48523222	      1.02021834	      0.28296333	     19.23890749	     -0.57572868	      0.41785339	    -44.55656696	      3.67395088	    -19.06203373	     -5.80474702	    -11.23867505	      5.81879867	      5.84872659	     -3.09352615	      3.10001615	    -10.93383951	      0.87647111	     -9.45968556	      1.24938512	     -0.04613818
      1.43350000	      6.98688540	      1.41353941	      1.80108092	      0.49015460	      1.01988134	      0.28296017	     19.34734705	     -0.56048747	      0.39548492	    -43.14517823	      3.71565355	    -19.06583658	     -5.98013727	    -11.62383115	      5.76447506	      5.98290987	     -2.94407985	      3.27161008	    -11.00362443	      0.77601827	     -9.47725884	      1.28068984	     -0.09280103
      1.43766667	      6.93321160	      1.38385066	      1.85344894	      0.49506977	      1.01946106	      0.28295443	     19.48676508	     -0.54680682	      0.36242061	    -41.70449123	      3.78856385	    -19.01664858	     -6.05770427	    -11.92863238	      5.70707284	      6.08661410	     -2.85537080	      3.47041779	    -11.03659317	      0.73195179	     -9.44794560	      1.31376720	     -0.10001873
